<svg viewBox="-16 -32 880 192" width="880" height="192" xmlns="http://www.w3.org/2000/svg"><style>@keyframes c0{12.69%{fill:var(--c1)}12.71%,to{fill:var(--ce)}}@keyframes c1{8.13%{fill:var(--c1)}8.15%,to{fill:var(--ce)}}@keyframes c2{11.39%{fill:var(--c1)}11.41%,to{fill:var(--ce)}}@keyframes c3{11.72%{fill:var(--c1)}11.74%,to{fill:var(--ce)}}@keyframes c4{9.44%{fill:var(--c1)}9.46%,to{fill:var(--ce)}}@keyframes c5{16.93%{fill:var(--c1)}16.95%,to{fill:var(--ce)}}@keyframes c6{17.25%{fill:var(--c1)}17.27%,to{fill:var(--ce)}}@keyframes c7{77.19%{fill:var(--c3)}77.21%,to{fill:var(--ce)}}@keyframes c8{65.79%{fill:var(--c2)}65.81%,to{fill:var(--ce)}}@keyframes c9{18.56%{fill:var(--c1)}18.58%,to{fill:var(--ce)}}@keyframes ca{40.71%{fill:var(--c1)}40.73%,to{fill:var(--ce)}}@keyframes cb{77.51%{fill:var(--c4)}77.53%,to{fill:var(--ce)}}@keyframes cc{39.73%{fill:var(--c1)}39.75%,to{fill:var(--ce)}}@keyframes cd{41.36%{fill:var(--c1)}41.38%,to{fill:var(--ce)}}@keyframes ce{41.68%{fill:var(--c1)}41.7%,to{fill:var(--ce)}}@keyframes cf{37.12%{fill:var(--c1)}37.14%,to{fill:var(--ce)}}@keyframes cg{19.53%{fill:var(--c1)}19.55%,to{fill:var(--ce)}}@keyframes ch{36.15%{fill:var(--c1)}36.17%,to{fill:var(--ce)}}@keyframes ci{39.08%{fill:var(--c1)}39.1%,to{fill:var(--ce)}}@keyframes cj{63.51%{fill:var(--c2)}63.53%,to{fill:var(--ce)}}@keyframes ck{42.99%{fill:var(--c1)}43.01%,to{fill:var(--ce)}}@keyframes cl{37.45%{fill:var(--c1)}37.47%,to{fill:var(--ce)}}@keyframes cm{35.82%{fill:var(--c1)}35.84%,to{fill:var(--ce)}}@keyframes cn{38.43%{fill:var(--c1)}38.45%,to{fill:var(--ce)}}@keyframes co{38.1%{fill:var(--c1)}38.12%,to{fill:var(--ce)}}@keyframes cp{37.78%{fill:var(--c1)}37.8%,to{fill:var(--ce)}}@keyframes cq{20.51%{fill:var(--c1)}20.53%,to{fill:var(--ce)}}@keyframes cr{61.23%{fill:var(--c2)}61.25%,to{fill:var(--ce)}}@keyframes cs{29.96%{fill:var(--c1)}29.98%,to{fill:var(--ce)}}@keyframes ct{30.28%{fill:var(--c1)}30.3%,to{fill:var(--ce)}}@keyframes cu{62.53%{fill:var(--c2)}62.55%,to{fill:var(--ce)}}@keyframes cv{35.17%{fill:var(--c1)}35.19%,to{fill:var(--ce)}}@keyframes cw{29.63%{fill:var(--c1)}29.65%,to{fill:var(--ce)}}@keyframes cx{30.61%{fill:var(--c1)}30.63%,to{fill:var(--ce)}}@keyframes cy{21.81%{fill:var(--c1)}21.83%,to{fill:var(--ce)}}@keyframes cz{21.49%{fill:var(--c1)}21.51%,to{fill:var(--ce)}}@keyframes c10{74.58%{fill:var(--c3)}74.6%,to{fill:var(--ce)}}@keyframes c11{34.52%{fill:var(--c1)}34.54%,to{fill:var(--ce)}}@keyframes c12{34.19%{fill:var(--c1)}34.21%,to{fill:var(--ce)}}@keyframes c13{29.31%{fill:var(--c1)}29.33%,to{fill:var(--ce)}}@keyframes c14{30.93%{fill:var(--c1)}30.95%,to{fill:var(--ce)}}@keyframes c15{22.14%{fill:var(--c1)}22.16%,to{fill:var(--ce)}}@keyframes c16{56.99%{fill:var(--c2)}57.01%,to{fill:var(--ce)}}@keyframes c17{56.67%{fill:var(--c1)}56.69%,to{fill:var(--ce)}}@keyframes c18{60.25%{fill:var(--c2)}60.27%,to{fill:var(--ce)}}@keyframes c19{33.87%{fill:var(--c1)}33.89%,to{fill:var(--ce)}}@keyframes c1a{28.98%{fill:var(--c1)}29%,to{fill:var(--ce)}}@keyframes c1b{22.79%{fill:var(--c1)}22.81%,to{fill:var(--ce)}}@keyframes c1c{22.47%{fill:var(--c1)}22.49%,to{fill:var(--ce)}}@keyframes c1d{31.91%{fill:var(--c1)}31.93%,to{fill:var(--ce)}}@keyframes c1e{32.56%{fill:var(--c1)}32.58%,to{fill:var(--ce)}}@keyframes c1f{28.65%{fill:var(--c1)}28.67%,to{fill:var(--ce)}}@keyframes c1g{23.12%{fill:var(--c1)}23.14%,to{fill:var(--ce)}}@keyframes c1h{57.97%{fill:var(--c2)}57.99%,to{fill:var(--ce)}}@keyframes c1i{59.27%{fill:var(--c2)}59.29%,to{fill:var(--ce)}}@keyframes c1j{32.89%{fill:var(--c1)}32.91%,to{fill:var(--ce)}}@keyframes c1k{33.21%{fill:var(--c1)}33.23%,to{fill:var(--ce)}}@keyframes c1l{28.33%{fill:var(--c1)}28.35%,to{fill:var(--ce)}}@keyframes c1m{23.44%{fill:var(--c1)}23.46%,to{fill:var(--ce)}}@keyframes c1n{58.3%{fill:var(--c2)}58.32%,to{fill:var(--ce)}}@keyframes c1o{54.06%{fill:var(--c1)}54.08%,to{fill:var(--ce)}}@keyframes c1p{58.95%{fill:var(--c2)}58.97%,to{fill:var(--ce)}}@keyframes c1q{50.15%{fill:var(--c1)}50.17%,to{fill:var(--ce)}}@keyframes c1r{81.75%{fill:var(--c4)}81.77%,to{fill:var(--ce)}}@keyframes c1s{71.65%{fill:var(--c2)}71.67%,to{fill:var(--ce)}}@keyframes c1t{23.77%{fill:var(--c1)}23.79%,to{fill:var(--ce)}}@keyframes c1u{24.09%{fill:var(--c1)}24.11%,to{fill:var(--ce)}}@keyframes c1v{54.39%{fill:var(--c2)}54.41%,to{fill:var(--ce)}}@keyframes c1w{50.8%{fill:var(--c1)}50.82%,to{fill:var(--ce)}}@keyframes c1x{50.48%{fill:var(--c2)}50.5%,to{fill:var(--ce)}}@keyframes c1y{48.2%{fill:var(--c1)}48.22%,to{fill:var(--ce)}}@keyframes c1z{27.03%{fill:var(--c1)}27.05%,to{fill:var(--ce)}}@keyframes c20{24.42%{fill:var(--c1)}24.44%,to{fill:var(--ce)}}@keyframes c21{24.75%{fill:var(--c1)}24.77%,to{fill:var(--ce)}}@keyframes c22{47.22%{fill:var(--c1)}47.24%,to{fill:var(--ce)}}@keyframes c23{47.55%{fill:var(--c1)}47.57%,to{fill:var(--ce)}}@keyframes c24{25.72%{fill:var(--c1)}25.74%,to{fill:var(--ce)}}@keyframes c25{25.07%{fill:var(--c1)}25.09%,to{fill:var(--ce)}}@keyframes c26{26.37%{fill:var(--c1)}26.39%,to{fill:var(--ce)}}@keyframes c27{26.05%{fill:var(--c1)}26.07%,to{fill:var(--ce)}}@keyframes u0{8.13%{transform:scale(0,1)}8.15%,9.44%{transform:scale(.02,1)}11.39%,9.46%{transform:scale(.03,1)}11.41%,11.72%{transform:scale(.05,1)}11.74%,12.69%{transform:scale(.07,1)}12.71%,16.93%{transform:scale(.08,1)}16.95%,17.25%{transform:scale(.1,1)}17.27%,18.56%{transform:scale(.12,1)}18.58%,19.53%{transform:scale(.13,1)}19.55%,20.51%{transform:scale(.15,1)}20.53%,21.49%{transform:scale(.17,1)}21.51%,21.81%{transform:scale(.18,1)}21.83%,22.14%{transform:scale(.2,1)}22.16%,22.47%{transform:scale(.22,1)}22.49%,22.79%{transform:scale(.23,1)}22.81%,23.12%{transform:scale(.25,1)}23.14%,23.44%{transform:scale(.27,1)}23.46%,23.77%{transform:scale(.28,1)}23.79%,24.09%{transform:scale(.3,1)}24.11%,24.42%{transform:scale(.32,1)}24.44%,24.75%{transform:scale(.33,1)}24.77%,25.07%{transform:scale(.35,1)}25.09%,25.72%{transform:scale(.37,1)}25.74%,26.05%{transform:scale(.38,1)}26.07%,26.37%{transform:scale(.4,1)}26.39%,27.03%{transform:scale(.42,1)}27.05%,28.33%{transform:scale(.43,1)}28.35%,28.65%{transform:scale(.45,1)}28.67%,28.98%{transform:scale(.47,1)}29%,29.31%{transform:scale(.48,1)}29.33%,29.63%{transform:scale(.5,1)}29.65%,29.96%{transform:scale(.52,1)}29.98%,30.28%{transform:scale(.53,1)}30.3%,30.61%{transform:scale(.55,1)}30.63%,30.93%{transform:scale(.57,1)}30.95%,31.91%{transform:scale(.58,1)}31.93%,32.56%{transform:scale(.6,1)}32.58%,32.89%{transform:scale(.62,1)}32.91%,33.21%{transform:scale(.63,1)}33.23%,33.87%{transform:scale(.65,1)}33.89%,34.19%{transform:scale(.67,1)}34.21%,34.52%{transform:scale(.68,1)}34.54%,35.17%{transform:scale(.7,1)}35.19%,35.82%{transform:scale(.72,1)}35.84%,36.15%{transform:scale(.73,1)}36.17%,37.12%{transform:scale(.75,1)}37.14%,37.45%{transform:scale(.77,1)}37.47%,37.78%{transform:scale(.78,1)}37.8%,38.1%{transform:scale(.8,1)}38.12%,38.43%{transform:scale(.82,1)}38.45%,39.08%{transform:scale(.83,1)}39.1%,39.73%{transform:scale(.85,1)}39.75%,40.71%{transform:scale(.87,1)}40.73%,41.36%{transform:scale(.88,1)}41.38%,41.68%{transform:scale(.9,1)}41.7%,42.99%{transform:scale(.92,1)}43.01%,47.22%{transform:scale(.93,1)}47.24%,47.55%{transform:scale(.95,1)}47.57%,48.2%{transform:scale(.97,1)}48.22%,50.15%{transform:scale(.98,1)}50.17%,to{transform:scale(1,1)}}@keyframes u1{50.48%{transform:scale(0,1)}50.5%,to{transform:scale(1,1)}}@keyframes u2{50.8%{transform:scale(0,1)}50.82%,54.06%{transform:scale(.5,1)}54.08%,to{transform:scale(1,1)}}@keyframes u3{54.39%{transform:scale(0,1)}54.41%,to{transform:scale(1,1)}}@keyframes u4{56.67%{transform:scale(0,1)}56.69%,to{transform:scale(1,1)}}@keyframes u5{56.99%{transform:scale(0,1)}57.01%,57.97%{transform:scale(.09,1)}57.99%,58.3%{transform:scale(.18,1)}58.32%,58.95%{transform:scale(.27,1)}58.97%,59.27%{transform:scale(.36,1)}59.29%,60.25%{transform:scale(.45,1)}60.27%,61.23%{transform:scale(.55,1)}61.25%,62.53%{transform:scale(.64,1)}62.55%,63.51%{transform:scale(.73,1)}63.53%,65.79%{transform:scale(.82,1)}65.81%,71.65%{transform:scale(.91,1)}71.67%,to{transform:scale(1,1)}}@keyframes u6{74.58%{transform:scale(0,1)}74.6%,77.19%{transform:scale(.5,1)}77.21%,to{transform:scale(1,1)}}@keyframes u7{77.51%{transform:scale(0,1)}77.53%,81.75%{transform:scale(.5,1)}81.77%,to{transform:scale(1,1)}}@keyframes s0{0%,99.67%{transform:translate(0,-16px)}.33%{transform:translate(0,0)}7.82%{transform:translate(368px,0)}8.14%{transform:translate(368px,16px)}9.12%{transform:translate(416px,16px)}9.45%{transform:translate(416px,0)}10.1%{transform:translate(384px,0)}11.73%{transform:translate(384px,80px)}12.7%{transform:translate(336px,80px)}13.03%{transform:translate(336px,96px)}18.24%{transform:translate(592px,96px)}18.57%{transform:translate(592px,80px)}19.54%{transform:translate(640px,80px)}19.87%{transform:translate(640px,64px)}20.85%,61.89%{transform:translate(688px,64px)}21.17%{transform:translate(688px,48px)}21.5%{transform:translate(704px,48px)}21.82%{transform:translate(704px,32px)}22.48%{transform:translate(736px,32px)}22.8%,31.27%{transform:translate(736px,16px)}23.78%{transform:translate(784px,16px)}24.1%,71.01%{transform:translate(784px,32px)}24.43%{transform:translate(800px,32px)}24.76%{transform:translate(800px,48px)}25.08%{transform:translate(816px,48px)}25.73%{transform:translate(816px,16px)}26.06%{transform:translate(832px,16px)}26.38%{transform:translate(832px,0)}27.04%{transform:translate(800px,0)}27.36%{transform:translate(800px,-16px)}28.01%{transform:translate(768px,-16px)}28.34%{transform:translate(768px,0)}29.97%{transform:translate(688px,0)}30.29%,62.87%{transform:translate(688px,16px)}32.57%,52.77%,56.03%{transform:translate(736px,80px)}32.9%,49.84%{transform:translate(752px,80px)}33.22%{transform:translate(752px,96px)}34.2%{transform:translate(704px,96px)}34.53%{transform:translate(704px,80px)}34.85%{transform:translate(688px,80px)}35.18%{transform:translate(688px,96px)}36.16%{transform:translate(640px,96px)}37.13%{transform:translate(640px,48px)}37.79%{transform:translate(672px,48px)}38.76%{transform:translate(672px,0)}40.07%{transform:translate(608px,0)}40.72%{transform:translate(608px,32px)}41.04%{transform:translate(624px,32px)}41.69%,65.15%{transform:translate(624px,64px)}42.35%{transform:translate(656px,64px)}43%{transform:translate(656px,32px)}43.32%{transform:translate(672px,32px)}43.65%{transform:translate(672px,16px)}46.25%{transform:translate(800px,16px)}47.88%{transform:translate(800px,96px)}48.21%{transform:translate(784px,96px)}48.53%{transform:translate(784px,112px)}49.19%{transform:translate(752px,112px)}50.49%,55.05%{transform:translate(784px,80px)}50.81%{transform:translate(784px,64px)}51.14%{transform:translate(800px,64px)}51.47%{transform:translate(800px,80px)}53.42%{transform:translate(736px,48px)}54.4%{transform:translate(784px,48px)}56.35%{transform:translate(736px,64px)}56.68%,59.93%{transform:translate(720px,64px)}57%{transform:translate(720px,48px)}57.65%{transform:translate(752px,48px)}57.98%{transform:translate(752px,32px)}58.31%{transform:translate(768px,32px)}58.96%{transform:translate(768px,64px)}60.26%{transform:translate(720px,80px)}61.24%{transform:translate(672px,80px)}61.56%{transform:translate(672px,64px)}64.17%{transform:translate(624px,16px)}66.12%{transform:translate(576px,64px)}66.78%{transform:translate(576px,32px)}71.66%{transform:translate(784px,0)}73.29%{transform:translate(704px,0)}74.59%{transform:translate(704px,64px)}76.87%{transform:translate(592px,64px)}77.2%{transform:translate(592px,48px)}80.78%{transform:translate(768px,48px)}81.76%{transform:translate(768px,96px)}93.49%{transform:translate(192px,96px)}93.81%{transform:translate(192px,80px)}94.46%{transform:translate(160px,80px)}95.44%{transform:translate(160px,32px)}95.77%{transform:translate(144px,32px)}96.42%{transform:translate(144px,0)}97.39%{transform:translate(96px,0)}97.72%{transform:translate(96px,-16px)}}@keyframes s1{0%,99.67%{transform:translate(16px,-16px)}.33%{transform:translate(0,-16px)}.65%{transform:translate(0,0)}8.14%{transform:translate(368px,0)}8.47%{transform:translate(368px,16px)}9.45%{transform:translate(416px,16px)}9.77%{transform:translate(416px,0)}10.42%{transform:translate(384px,0)}12.05%{transform:translate(384px,80px)}13.03%{transform:translate(336px,80px)}13.36%{transform:translate(336px,96px)}18.57%{transform:translate(592px,96px)}18.89%{transform:translate(592px,80px)}19.87%{transform:translate(640px,80px)}20.2%{transform:translate(640px,64px)}21.17%,62.21%{transform:translate(688px,64px)}21.5%{transform:translate(688px,48px)}21.82%{transform:translate(704px,48px)}22.15%{transform:translate(704px,32px)}22.8%{transform:translate(736px,32px)}23.13%,31.6%{transform:translate(736px,16px)}24.1%{transform:translate(784px,16px)}24.43%,71.34%{transform:translate(784px,32px)}24.76%{transform:translate(800px,32px)}25.08%{transform:translate(800px,48px)}25.41%{transform:translate(816px,48px)}26.06%{transform:translate(816px,16px)}26.38%{transform:translate(832px,16px)}26.71%{transform:translate(832px,0)}27.36%{transform:translate(800px,0)}27.69%{transform:translate(800px,-16px)}28.34%{transform:translate(768px,-16px)}28.66%{transform:translate(768px,0)}30.29%{transform:translate(688px,0)}30.62%,63.19%{transform:translate(688px,16px)}32.9%,53.09%,56.35%{transform:translate(736px,80px)}33.22%,50.16%{transform:translate(752px,80px)}33.55%{transform:translate(752px,96px)}34.53%{transform:translate(704px,96px)}34.85%{transform:translate(704px,80px)}35.18%{transform:translate(688px,80px)}35.5%{transform:translate(688px,96px)}36.48%{transform:translate(640px,96px)}37.46%{transform:translate(640px,48px)}38.11%{transform:translate(672px,48px)}39.09%{transform:translate(672px,0)}40.39%{transform:translate(608px,0)}41.04%{transform:translate(608px,32px)}41.37%{transform:translate(624px,32px)}42.02%,65.47%{transform:translate(624px,64px)}42.67%{transform:translate(656px,64px)}43.32%{transform:translate(656px,32px)}43.65%{transform:translate(672px,32px)}43.97%{transform:translate(672px,16px)}46.58%{transform:translate(800px,16px)}48.21%{transform:translate(800px,96px)}48.53%{transform:translate(784px,96px)}48.86%{transform:translate(784px,112px)}49.51%{transform:translate(752px,112px)}50.81%,55.37%{transform:translate(784px,80px)}51.14%{transform:translate(784px,64px)}51.47%{transform:translate(800px,64px)}51.79%{transform:translate(800px,80px)}53.75%{transform:translate(736px,48px)}54.72%{transform:translate(784px,48px)}56.68%{transform:translate(736px,64px)}57%,60.26%{transform:translate(720px,64px)}57.33%{transform:translate(720px,48px)}57.98%{transform:translate(752px,48px)}58.31%{transform:translate(752px,32px)}58.63%{transform:translate(768px,32px)}59.28%{transform:translate(768px,64px)}60.59%{transform:translate(720px,80px)}61.56%{transform:translate(672px,80px)}61.89%{transform:translate(672px,64px)}64.5%{transform:translate(624px,16px)}66.45%{transform:translate(576px,64px)}67.1%{transform:translate(576px,32px)}71.99%{transform:translate(784px,0)}73.62%{transform:translate(704px,0)}74.92%{transform:translate(704px,64px)}77.2%{transform:translate(592px,64px)}77.52%{transform:translate(592px,48px)}81.11%{transform:translate(768px,48px)}82.08%{transform:translate(768px,96px)}93.81%{transform:translate(192px,96px)}94.14%{transform:translate(192px,80px)}94.79%{transform:translate(160px,80px)}95.77%{transform:translate(160px,32px)}96.09%{transform:translate(144px,32px)}96.74%{transform:translate(144px,0)}97.72%{transform:translate(96px,0)}98.05%{transform:translate(96px,-16px)}}@keyframes s2{0%,99.67%{transform:translate(32px,-16px)}.65%{transform:translate(0,-16px)}.98%{transform:translate(0,0)}8.47%{transform:translate(368px,0)}8.79%{transform:translate(368px,16px)}9.77%{transform:translate(416px,16px)}10.1%{transform:translate(416px,0)}10.75%{transform:translate(384px,0)}12.38%{transform:translate(384px,80px)}13.36%{transform:translate(336px,80px)}13.68%{transform:translate(336px,96px)}18.89%{transform:translate(592px,96px)}19.22%{transform:translate(592px,80px)}20.2%{transform:translate(640px,80px)}20.52%{transform:translate(640px,64px)}21.5%,62.54%{transform:translate(688px,64px)}21.82%{transform:translate(688px,48px)}22.15%{transform:translate(704px,48px)}22.48%{transform:translate(704px,32px)}23.13%{transform:translate(736px,32px)}23.45%,31.92%{transform:translate(736px,16px)}24.43%{transform:translate(784px,16px)}24.76%,71.66%{transform:translate(784px,32px)}25.08%{transform:translate(800px,32px)}25.41%{transform:translate(800px,48px)}25.73%{transform:translate(816px,48px)}26.38%{transform:translate(816px,16px)}26.71%{transform:translate(832px,16px)}27.04%{transform:translate(832px,0)}27.69%{transform:translate(800px,0)}28.01%{transform:translate(800px,-16px)}28.66%{transform:translate(768px,-16px)}28.99%{transform:translate(768px,0)}30.62%{transform:translate(688px,0)}30.94%,63.52%{transform:translate(688px,16px)}33.22%,53.42%,56.68%{transform:translate(736px,80px)}33.55%,50.49%{transform:translate(752px,80px)}33.88%{transform:translate(752px,96px)}34.85%{transform:translate(704px,96px)}35.18%{transform:translate(704px,80px)}35.5%{transform:translate(688px,80px)}35.83%{transform:translate(688px,96px)}36.81%{transform:translate(640px,96px)}37.79%{transform:translate(640px,48px)}38.44%{transform:translate(672px,48px)}39.41%{transform:translate(672px,0)}40.72%{transform:translate(608px,0)}41.37%{transform:translate(608px,32px)}41.69%{transform:translate(624px,32px)}42.35%,65.8%{transform:translate(624px,64px)}43%{transform:translate(656px,64px)}43.65%{transform:translate(656px,32px)}43.97%{transform:translate(672px,32px)}44.3%{transform:translate(672px,16px)}46.91%{transform:translate(800px,16px)}48.53%{transform:translate(800px,96px)}48.86%{transform:translate(784px,96px)}49.19%{transform:translate(784px,112px)}49.84%{transform:translate(752px,112px)}51.14%,55.7%{transform:translate(784px,80px)}51.47%{transform:translate(784px,64px)}51.79%{transform:translate(800px,64px)}52.12%{transform:translate(800px,80px)}54.07%{transform:translate(736px,48px)}55.05%{transform:translate(784px,48px)}57%{transform:translate(736px,64px)}57.33%,60.59%{transform:translate(720px,64px)}57.65%{transform:translate(720px,48px)}58.31%{transform:translate(752px,48px)}58.63%{transform:translate(752px,32px)}58.96%{transform:translate(768px,32px)}59.61%{transform:translate(768px,64px)}60.91%{transform:translate(720px,80px)}61.89%{transform:translate(672px,80px)}62.21%{transform:translate(672px,64px)}64.82%{transform:translate(624px,16px)}66.78%{transform:translate(576px,64px)}67.43%{transform:translate(576px,32px)}72.31%{transform:translate(784px,0)}73.94%{transform:translate(704px,0)}75.24%{transform:translate(704px,64px)}77.52%{transform:translate(592px,64px)}77.85%{transform:translate(592px,48px)}81.43%{transform:translate(768px,48px)}82.41%{transform:translate(768px,96px)}94.14%{transform:translate(192px,96px)}94.46%{transform:translate(192px,80px)}95.11%{transform:translate(160px,80px)}96.09%{transform:translate(160px,32px)}96.42%{transform:translate(144px,32px)}97.07%{transform:translate(144px,0)}98.05%{transform:translate(96px,0)}98.37%{transform:translate(96px,-16px)}}@keyframes s3{0%,99.67%{transform:translate(48px,-16px)}.98%{transform:translate(0,-16px)}1.3%{transform:translate(0,0)}8.79%{transform:translate(368px,0)}9.12%{transform:translate(368px,16px)}10.1%{transform:translate(416px,16px)}10.42%{transform:translate(416px,0)}11.07%{transform:translate(384px,0)}12.7%{transform:translate(384px,80px)}13.68%{transform:translate(336px,80px)}14.01%{transform:translate(336px,96px)}19.22%{transform:translate(592px,96px)}19.54%{transform:translate(592px,80px)}20.52%{transform:translate(640px,80px)}20.85%{transform:translate(640px,64px)}21.82%,62.87%{transform:translate(688px,64px)}22.15%{transform:translate(688px,48px)}22.48%{transform:translate(704px,48px)}22.8%{transform:translate(704px,32px)}23.45%{transform:translate(736px,32px)}23.78%,32.25%{transform:translate(736px,16px)}24.76%{transform:translate(784px,16px)}25.08%,71.99%{transform:translate(784px,32px)}25.41%{transform:translate(800px,32px)}25.73%{transform:translate(800px,48px)}26.06%{transform:translate(816px,48px)}26.71%{transform:translate(816px,16px)}27.04%{transform:translate(832px,16px)}27.36%{transform:translate(832px,0)}28.01%{transform:translate(800px,0)}28.34%{transform:translate(800px,-16px)}28.99%{transform:translate(768px,-16px)}29.32%{transform:translate(768px,0)}30.94%{transform:translate(688px,0)}31.27%,63.84%{transform:translate(688px,16px)}33.55%,53.75%,57%{transform:translate(736px,80px)}33.88%,50.81%{transform:translate(752px,80px)}34.2%{transform:translate(752px,96px)}35.18%{transform:translate(704px,96px)}35.5%{transform:translate(704px,80px)}35.83%{transform:translate(688px,80px)}36.16%{transform:translate(688px,96px)}37.13%{transform:translate(640px,96px)}38.11%{transform:translate(640px,48px)}38.76%{transform:translate(672px,48px)}39.74%{transform:translate(672px,0)}41.04%{transform:translate(608px,0)}41.69%{transform:translate(608px,32px)}42.02%{transform:translate(624px,32px)}42.67%,66.12%{transform:translate(624px,64px)}43.32%{transform:translate(656px,64px)}43.97%{transform:translate(656px,32px)}44.3%{transform:translate(672px,32px)}44.63%{transform:translate(672px,16px)}47.23%{transform:translate(800px,16px)}48.86%{transform:translate(800px,96px)}49.19%{transform:translate(784px,96px)}49.51%{transform:translate(784px,112px)}50.16%{transform:translate(752px,112px)}51.47%,56.03%{transform:translate(784px,80px)}51.79%{transform:translate(784px,64px)}52.12%{transform:translate(800px,64px)}52.44%{transform:translate(800px,80px)}54.4%{transform:translate(736px,48px)}55.37%{transform:translate(784px,48px)}57.33%{transform:translate(736px,64px)}57.65%,60.91%{transform:translate(720px,64px)}57.98%{transform:translate(720px,48px)}58.63%{transform:translate(752px,48px)}58.96%{transform:translate(752px,32px)}59.28%{transform:translate(768px,32px)}59.93%{transform:translate(768px,64px)}61.24%{transform:translate(720px,80px)}62.21%{transform:translate(672px,80px)}62.54%{transform:translate(672px,64px)}65.15%{transform:translate(624px,16px)}67.1%{transform:translate(576px,64px)}67.75%{transform:translate(576px,32px)}72.64%{transform:translate(784px,0)}74.27%{transform:translate(704px,0)}75.57%{transform:translate(704px,64px)}77.85%{transform:translate(592px,64px)}78.18%{transform:translate(592px,48px)}81.76%{transform:translate(768px,48px)}82.74%{transform:translate(768px,96px)}94.46%{transform:translate(192px,96px)}94.79%{transform:translate(192px,80px)}95.44%{transform:translate(160px,80px)}96.42%{transform:translate(160px,32px)}96.74%{transform:translate(144px,32px)}97.39%{transform:translate(144px,0)}98.37%{transform:translate(96px,0)}98.7%{transform:translate(96px,-16px)}}:root{--cb:#1b1f230a;--cs:purple;--ce:#ebedf0;--c0:#ebedf0;--c1:#9be9a8;--c2:#40c463;--c3:#30a14e;--c4:#216e39}@media (prefers-color-scheme:dark){:root{--cb:#1b1f230a;--cs:purple;--ce:#161b22;--c1:#01311f;--c2:#034525;--c3:#0f6d31;--c4:#00c647}}.c{shape-rendering:geometricPrecision;rx:2;ry:2;fill:var(--ce);stroke-width:1px;stroke:var(--cb);animation:none 30700ms linear infinite}.c.c0{fill:var(--c1);animation-name:c0}.c.c1,.c.c2,.c.c3{fill:var(--c1);animation-name:c1}.c.c2,.c.c3{animation-name:c2}.c.c3{animation-name:c3}.c.c4,.c.c5,.c.c6{fill:var(--c1);animation-name:c4}.c.c5,.c.c6{animation-name:c5}.c.c6{animation-name:c6}.c.c7{fill:var(--c3);animation-name:c7}.c.c8{fill:var(--c2);animation-name:c8}.c.c9,.c.ca{fill:var(--c1);animation-name:c9}.c.ca{animation-name:ca}.c.cb{fill:var(--c4);animation-name:cb}.c.cc{fill:var(--c1);animation-name:cc}.c.cd,.c.ce,.c.cf{fill:var(--c1);animation-name:cd}.c.ce,.c.cf{animation-name:ce}.c.cf{animation-name:cf}.c.cg,.c.ch,.c.ci{fill:var(--c1);animation-name:cg}.c.ch,.c.ci{animation-name:ch}.c.ci{animation-name:ci}.c.cj{fill:var(--c2);animation-name:cj}.c.ck{fill:var(--c1);animation-name:ck}.c.cl,.c.cm,.c.cn{fill:var(--c1);animation-name:cl}.c.cm,.c.cn{animation-name:cm}.c.cn{animation-name:cn}.c.co,.c.cp,.c.cq{fill:var(--c1);animation-name:co}.c.cp,.c.cq{animation-name:cp}.c.cq{animation-name:cq}.c.cr{fill:var(--c2);animation-name:cr}.c.cs,.c.ct{fill:var(--c1);animation-name:cs}.c.ct{animation-name:ct}.c.cu{fill:var(--c2);animation-name:cu}.c.cv,.c.cw{fill:var(--c1);animation-name:cv}.c.cw{animation-name:cw}.c.cx,.c.cy,.c.cz{fill:var(--c1);animation-name:cx}.c.cy,.c.cz{animation-name:cy}.c.cz{animation-name:cz}.c.c10{fill:var(--c3);animation-name:c10}.c.c11,.c.c12{fill:var(--c1);animation-name:c11}.c.c12{animation-name:c12}.c.c13,.c.c14,.c.c15{fill:var(--c1);animation-name:c13}.c.c14,.c.c15{animation-name:c14}.c.c15{animation-name:c15}.c.c16{fill:var(--c2);animation-name:c16}.c.c17{fill:var(--c1);animation-name:c17}.c.c18{fill:var(--c2);animation-name:c18}.c.c19,.c.c1a{fill:var(--c1);animation-name:c19}.c.c1a{animation-name:c1a}.c.c1b,.c.c1c,.c.c1d{fill:var(--c1);animation-name:c1b}.c.c1c,.c.c1d{animation-name:c1c}.c.c1d{animation-name:c1d}.c.c1e,.c.c1f,.c.c1g{fill:var(--c1);animation-name:c1e}.c.c1f,.c.c1g{animation-name:c1f}.c.c1g{animation-name:c1g}.c.c1h,.c.c1i{fill:var(--c2);animation-name:c1h}.c.c1i{animation-name:c1i}.c.c1j{fill:var(--c1);animation-name:c1j}.c.c1k,.c.c1l,.c.c1m{fill:var(--c1);animation-name:c1k}.c.c1l,.c.c1m{animation-name:c1l}.c.c1m{animation-name:c1m}.c.c1n{fill:var(--c2);animation-name:c1n}.c.c1o{fill:var(--c1);animation-name:c1o}.c.c1p{fill:var(--c2);animation-name:c1p}.c.c1q{fill:var(--c1);animation-name:c1q}.c.c1r{fill:var(--c4);animation-name:c1r}.c.c1s{fill:var(--c2);animation-name:c1s}.c.c1t,.c.c1u{fill:var(--c1);animation-name:c1t}.c.c1u{animation-name:c1u}.c.c1v{fill:var(--c2);animation-name:c1v}.c.c1w{fill:var(--c1);animation-name:c1w}.c.c1x{fill:var(--c2);animation-name:c1x}.c.c1y{fill:var(--c1);animation-name:c1y}.c.c1z,.c.c20,.c.c21{fill:var(--c1);animation-name:c1z}.c.c20,.c.c21{animation-name:c20}.c.c21{animation-name:c21}.c.c22,.c.c23,.c.c24{fill:var(--c1);animation-name:c22}.c.c23,.c.c24{animation-name:c23}.c.c24{animation-name:c24}.c.c25,.c.c26,.c.c27{fill:var(--c1);animation-name:c25}.c.c26,.c.c27{animation-name:c26}.c.c27{animation-name:c27}.s,.u{animation:none linear 30700ms infinite}.u,.u.u0{transform-origin:0 0}.u{transform:scale(0,1)}.u.u0{fill:var(--c1);animation-name:u0}.u.u1{fill:var(--c2);animation-name:u1;transform-origin:636px 0}.u.u2{fill:var(--c1);animation-name:u2;transform-origin:646.6px 0}.u.u3{fill:var(--c2);animation-name:u3;transform-origin:667.8px 0}.u.u4{fill:var(--c1);animation-name:u4;transform-origin:678.4px 0}.u.u5{fill:var(--c2);animation-name:u5;transform-origin:689px 0}.u.u6{fill:var(--c3);animation-name:u6;transform-origin:805.6px 0}.u.u7{fill:var(--c4);animation-name:u7;transform-origin:826.8px 0}.s{shape-rendering:geometricPrecision;fill:var(--cs)}.s.s0{transform:translate(0,-16px);animation-name:s0}.s.s1{transform:translate(16px,-16px);animation-name:s1}.s.s2{transform:translate(32px,-16px);animation-name:s2}.s.s3{transform:translate(48px,-16px);animation-name:s3}</style><rect class="c" x="2" y="2" width="12" height="12"/><rect class="c" x="2" y="18" width="12" height="12"/><rect class="c" x="2" y="34" width="12" height="12"/><rect class="c" x="2" y="50" width="12" height="12"/><rect class="c" x="2" y="66" width="12" height="12"/><rect class="c" x="2" y="82" width="12" height="12"/><rect class="c" x="2" y="98" width="12" height="12"/><rect class="c" x="18" y="2" width="12" height="12"/><rect class="c" x="18" y="18" width="12" height="12"/><rect class="c" x="18" y="34" width="12" height="12"/><rect class="c" x="18" y="50" width="12" height="12"/><rect class="c" x="18" y="66" width="12" height="12"/><rect class="c" x="18" y="82" width="12" height="12"/><rect class="c" x="18" y="98" width="12" height="12"/><rect class="c" x="34" y="2" width="12" height="12"/><rect class="c" x="34" y="18" width="12" height="12"/><rect class="c" x="34" y="34" width="12" height="12"/><rect class="c" x="34" y="50" width="12" height="12"/><rect class="c" x="34" y="66" width="12" height="12"/><rect class="c" x="34" y="82" width="12" height="12"/><rect class="c" x="34" y="98" width="12" height="12"/><rect class="c" x="50" y="2" width="12" height="12"/><rect class="c" x="50" y="18" width="12" height="12"/><rect class="c" x="50" y="34" width="12" height="12"/><rect class="c" x="50" y="50" width="12" height="12"/><rect class="c" x="50" y="66" width="12" height="12"/><rect class="c" x="50" y="82" width="12" height="12"/><rect class="c" x="50" y="98" width="12" height="12"/><rect class="c" x="66" y="2" width="12" height="12"/><rect class="c" x="66" y="18" width="12" height="12"/><rect class="c" x="66" y="34" width="12" height="12"/><rect class="c" x="66" y="50" width="12" height="12"/><rect class="c" x="66" y="66" width="12" height="12"/><rect class="c" x="66" y="82" width="12" height="12"/><rect class="c" x="66" y="98" width="12" height="12"/><rect class="c" x="82" y="2" width="12" height="12"/><rect class="c" x="82" y="18" width="12" height="12"/><rect class="c" x="82" y="34" width="12" height="12"/><rect class="c" x="82" y="50" width="12" height="12"/><rect class="c" x="82" y="66" width="12" height="12"/><rect class="c" x="82" y="82" width="12" height="12"/><rect class="c" x="82" y="98" width="12" height="12"/><rect class="c" x="98" y="2" width="12" height="12"/><rect class="c" x="98" y="18" width="12" height="12"/><rect class="c" x="98" y="34" width="12" height="12"/><rect class="c" x="98" y="50" width="12" height="12"/><rect class="c" x="98" y="66" width="12" height="12"/><rect class="c" x="98" y="82" width="12" height="12"/><rect class="c" x="98" y="98" width="12" height="12"/><rect class="c" x="114" y="2" width="12" height="12"/><rect class="c" x="114" y="18" width="12" height="12"/><rect class="c" x="114" y="34" width="12" height="12"/><rect class="c" x="114" y="50" width="12" height="12"/><rect class="c" x="114" y="66" width="12" height="12"/><rect class="c" x="114" y="82" width="12" height="12"/><rect class="c" x="114" y="98" width="12" height="12"/><rect class="c" x="130" y="2" width="12" height="12"/><rect class="c" x="130" y="18" width="12" height="12"/><rect class="c" x="130" y="34" width="12" height="12"/><rect class="c" x="130" y="50" width="12" height="12"/><rect class="c" x="130" y="66" width="12" height="12"/><rect class="c" x="130" y="82" width="12" height="12"/><rect class="c" x="130" y="98" width="12" height="12"/><rect class="c" x="146" y="2" width="12" height="12"/><rect class="c" x="146" y="18" width="12" height="12"/><rect class="c" x="146" y="34" width="12" height="12"/><rect class="c" x="146" y="50" width="12" height="12"/><rect class="c" x="146" y="66" width="12" height="12"/><rect class="c" x="146" y="82" width="12" height="12"/><rect class="c" x="146" y="98" width="12" height="12"/><rect class="c" x="162" y="2" width="12" height="12"/><rect class="c" x="162" y="18" width="12" height="12"/><rect class="c" x="162" y="34" width="12" height="12"/><rect class="c" x="162" y="50" width="12" height="12"/><rect class="c" x="162" y="66" width="12" height="12"/><rect class="c" x="162" y="82" width="12" height="12"/><rect class="c" x="162" y="98" width="12" height="12"/><rect class="c" x="178" y="2" width="12" height="12"/><rect class="c" x="178" y="18" width="12" height="12"/><rect class="c" x="178" y="34" width="12" height="12"/><rect class="c" x="178" y="50" width="12" height="12"/><rect class="c" x="178" y="66" width="12" height="12"/><rect class="c" x="178" y="82" width="12" height="12"/><rect class="c" x="178" y="98" width="12" height="12"/><rect class="c" x="194" y="2" width="12" height="12"/><rect class="c" x="194" y="18" width="12" height="12"/><rect class="c" x="194" y="34" width="12" height="12"/><rect class="c" x="194" y="50" width="12" height="12"/><rect class="c" x="194" y="66" width="12" height="12"/><rect class="c" x="194" y="82" width="12" height="12"/><rect class="c" x="194" y="98" width="12" height="12"/><rect class="c" x="210" y="2" width="12" height="12"/><rect class="c" x="210" y="18" width="12" height="12"/><rect class="c" x="210" y="34" width="12" height="12"/><rect class="c" x="210" y="50" width="12" height="12"/><rect class="c" x="210" y="66" width="12" height="12"/><rect class="c" x="210" y="82" width="12" height="12"/><rect class="c" x="210" y="98" width="12" height="12"/><rect class="c" x="226" y="2" width="12" height="12"/><rect class="c" x="226" y="18" width="12" height="12"/><rect class="c" x="226" y="34" width="12" height="12"/><rect class="c" x="226" y="50" width="12" height="12"/><rect class="c" x="226" y="66" width="12" height="12"/><rect class="c" x="226" y="82" width="12" height="12"/><rect class="c" x="226" y="98" width="12" height="12"/><rect class="c" x="242" y="2" width="12" height="12"/><rect class="c" x="242" y="18" width="12" height="12"/><rect class="c" x="242" y="34" width="12" height="12"/><rect class="c" x="242" y="50" width="12" height="12"/><rect class="c" x="242" y="66" width="12" height="12"/><rect class="c" x="242" y="82" width="12" height="12"/><rect class="c" x="242" y="98" width="12" height="12"/><rect class="c" x="258" y="2" width="12" height="12"/><rect class="c" x="258" y="18" width="12" height="12"/><rect class="c" x="258" y="34" width="12" height="12"/><rect class="c" x="258" y="50" width="12" height="12"/><rect class="c" x="258" y="66" width="12" height="12"/><rect class="c" x="258" y="82" width="12" height="12"/><rect class="c" x="258" y="98" width="12" height="12"/><rect class="c" x="274" y="2" width="12" height="12"/><rect class="c" x="274" y="18" width="12" height="12"/><rect class="c" x="274" y="34" width="12" height="12"/><rect class="c" x="274" y="50" width="12" height="12"/><rect class="c" x="274" y="66" width="12" height="12"/><rect class="c" x="274" y="82" width="12" height="12"/><rect class="c" x="274" y="98" width="12" height="12"/><rect class="c" x="290" y="2" width="12" height="12"/><rect class="c" x="290" y="18" width="12" height="12"/><rect class="c" x="290" y="34" width="12" height="12"/><rect class="c" x="290" y="50" width="12" height="12"/><rect class="c" x="290" y="66" width="12" height="12"/><rect class="c" x="290" y="82" width="12" height="12"/><rect class="c" x="290" y="98" width="12" height="12"/><rect class="c" x="306" y="2" width="12" height="12"/><rect class="c" x="306" y="18" width="12" height="12"/><rect class="c" x="306" y="34" width="12" height="12"/><rect class="c" x="306" y="50" width="12" height="12"/><rect class="c" x="306" y="66" width="12" height="12"/><rect class="c" x="306" y="82" width="12" height="12"/><rect class="c" x="306" y="98" width="12" height="12"/><rect class="c" x="322" y="2" width="12" height="12"/><rect class="c" x="322" y="18" width="12" height="12"/><rect class="c" x="322" y="34" width="12" height="12"/><rect class="c" x="322" y="50" width="12" height="12"/><rect class="c" x="322" y="66" width="12" height="12"/><rect class="c" x="322" y="82" width="12" height="12"/><rect class="c" x="322" y="98" width="12" height="12"/><rect class="c" x="338" y="2" width="12" height="12"/><rect class="c" x="338" y="18" width="12" height="12"/><rect class="c" x="338" y="34" width="12" height="12"/><rect class="c" x="338" y="50" width="12" height="12"/><rect class="c" x="338" y="66" width="12" height="12"/><rect class="c c0" x="338" y="82" width="12" height="12"/><rect class="c" x="338" y="98" width="12" height="12"/><rect class="c" x="354" y="2" width="12" height="12"/><rect class="c" x="354" y="18" width="12" height="12"/><rect class="c" x="354" y="34" width="12" height="12"/><rect class="c" x="354" y="50" width="12" height="12"/><rect class="c" x="354" y="66" width="12" height="12"/><rect class="c" x="354" y="82" width="12" height="12"/><rect class="c" x="354" y="98" width="12" height="12"/><rect class="c" x="370" y="2" width="12" height="12"/><rect class="c c1" x="370" y="18" width="12" height="12"/><rect class="c" x="370" y="34" width="12" height="12"/><rect class="c" x="370" y="50" width="12" height="12"/><rect class="c" x="370" y="66" width="12" height="12"/><rect class="c" x="370" y="82" width="12" height="12"/><rect class="c" x="370" y="98" width="12" height="12"/><rect class="c" x="386" y="2" width="12" height="12"/><rect class="c" x="386" y="18" width="12" height="12"/><rect class="c" x="386" y="34" width="12" height="12"/><rect class="c" x="386" y="50" width="12" height="12"/><rect class="c c2" x="386" y="66" width="12" height="12"/><rect class="c c3" x="386" y="82" width="12" height="12"/><rect class="c" x="386" y="98" width="12" height="12"/><rect class="c" x="402" y="2" width="12" height="12"/><rect class="c" x="402" y="18" width="12" height="12"/><rect class="c" x="402" y="34" width="12" height="12"/><rect class="c" x="402" y="50" width="12" height="12"/><rect class="c" x="402" y="66" width="12" height="12"/><rect class="c" x="402" y="82" width="12" height="12"/><rect class="c" x="402" y="98" width="12" height="12"/><rect class="c c4" x="418" y="2" width="12" height="12"/><rect class="c" x="418" y="18" width="12" height="12"/><rect class="c" x="418" y="34" width="12" height="12"/><rect class="c" x="418" y="50" width="12" height="12"/><rect class="c" x="418" y="66" width="12" height="12"/><rect class="c" x="418" y="82" width="12" height="12"/><rect class="c" x="418" y="98" width="12" height="12"/><rect class="c" x="434" y="2" width="12" height="12"/><rect class="c" x="434" y="18" width="12" height="12"/><rect class="c" x="434" y="34" width="12" height="12"/><rect class="c" x="434" y="50" width="12" height="12"/><rect class="c" x="434" y="66" width="12" height="12"/><rect class="c" x="434" y="82" width="12" height="12"/><rect class="c" x="434" y="98" width="12" height="12"/><rect class="c" x="450" y="2" width="12" height="12"/><rect class="c" x="450" y="18" width="12" height="12"/><rect class="c" x="450" y="34" width="12" height="12"/><rect class="c" x="450" y="50" width="12" height="12"/><rect class="c" x="450" y="66" width="12" height="12"/><rect class="c" x="450" y="82" width="12" height="12"/><rect class="c" x="450" y="98" width="12" height="12"/><rect class="c" x="466" y="2" width="12" height="12"/><rect class="c" x="466" y="18" width="12" height="12"/><rect class="c" x="466" y="34" width="12" height="12"/><rect class="c" x="466" y="50" width="12" height="12"/><rect class="c" x="466" y="66" width="12" height="12"/><rect class="c" x="466" y="82" width="12" height="12"/><rect class="c" x="466" y="98" width="12" height="12"/><rect class="c" x="482" y="2" width="12" height="12"/><rect class="c" x="482" y="18" width="12" height="12"/><rect class="c" x="482" y="34" width="12" height="12"/><rect class="c" x="482" y="50" width="12" height="12"/><rect class="c" x="482" y="66" width="12" height="12"/><rect class="c" x="482" y="82" width="12" height="12"/><rect class="c" x="482" y="98" width="12" height="12"/><rect class="c" x="498" y="2" width="12" height="12"/><rect class="c" x="498" y="18" width="12" height="12"/><rect class="c" x="498" y="34" width="12" height="12"/><rect class="c" x="498" y="50" width="12" height="12"/><rect class="c" x="498" y="66" width="12" height="12"/><rect class="c" x="498" y="82" width="12" height="12"/><rect class="c" x="498" y="98" width="12" height="12"/><rect class="c" x="514" y="2" width="12" height="12"/><rect class="c" x="514" y="18" width="12" height="12"/><rect class="c" x="514" y="34" width="12" height="12"/><rect class="c" x="514" y="50" width="12" height="12"/><rect class="c" x="514" y="66" width="12" height="12"/><rect class="c" x="514" y="82" width="12" height="12"/><rect class="c" x="514" y="98" width="12" height="12"/><rect class="c" x="530" y="2" width="12" height="12"/><rect class="c" x="530" y="18" width="12" height="12"/><rect class="c" x="530" y="34" width="12" height="12"/><rect class="c" x="530" y="50" width="12" height="12"/><rect class="c" x="530" y="66" width="12" height="12"/><rect class="c" x="530" y="82" width="12" height="12"/><rect class="c c5" x="530" y="98" width="12" height="12"/><rect class="c" x="546" y="2" width="12" height="12"/><rect class="c" x="546" y="18" width="12" height="12"/><rect class="c" x="546" y="34" width="12" height="12"/><rect class="c" x="546" y="50" width="12" height="12"/><rect class="c" x="546" y="66" width="12" height="12"/><rect class="c" x="546" y="82" width="12" height="12"/><rect class="c c6" x="546" y="98" width="12" height="12"/><rect class="c" x="562" y="2" width="12" height="12"/><rect class="c" x="562" y="18" width="12" height="12"/><rect class="c" x="562" y="34" width="12" height="12"/><rect class="c" x="562" y="50" width="12" height="12"/><rect class="c" x="562" y="66" width="12" height="12"/><rect class="c" x="562" y="82" width="12" height="12"/><rect class="c" x="562" y="98" width="12" height="12"/><rect class="c" x="578" y="2" width="12" height="12"/><rect class="c" x="578" y="18" width="12" height="12"/><rect class="c" x="578" y="34" width="12" height="12"/><rect class="c" x="578" y="50" width="12" height="12"/><rect class="c" x="578" y="66" width="12" height="12"/><rect class="c" x="578" y="82" width="12" height="12"/><rect class="c" x="578" y="98" width="12" height="12"/><rect class="c" x="594" y="2" width="12" height="12"/><rect class="c" x="594" y="18" width="12" height="12"/><rect class="c" x="594" y="34" width="12" height="12"/><rect class="c c7" x="594" y="50" width="12" height="12"/><rect class="c c8" x="594" y="66" width="12" height="12"/><rect class="c c9" x="594" y="82" width="12" height="12"/><rect class="c" x="594" y="98" width="12" height="12"/><rect class="c" x="610" y="2" width="12" height="12"/><rect class="c" x="610" y="18" width="12" height="12"/><rect class="c ca" x="610" y="34" width="12" height="12"/><rect class="c cb" x="610" y="50" width="12" height="12"/><rect class="c" x="610" y="66" width="12" height="12"/><rect class="c" x="610" y="82" width="12" height="12"/><rect class="c" x="610" y="98" width="12" height="12"/><rect class="c cc" x="626" y="2" width="12" height="12"/><rect class="c" x="626" y="18" width="12" height="12"/><rect class="c" x="626" y="34" width="12" height="12"/><rect class="c cd" x="626" y="50" width="12" height="12"/><rect class="c ce" x="626" y="66" width="12" height="12"/><rect class="c" x="626" y="82" width="12" height="12"/><rect class="c" x="626" y="98" width="12" height="12"/><rect class="c" x="642" y="2" width="12" height="12"/><rect class="c" x="642" y="18" width="12" height="12"/><rect class="c" x="642" y="34" width="12" height="12"/><rect class="c cf" x="642" y="50" width="12" height="12"/><rect class="c" x="642" y="66" width="12" height="12"/><rect class="c cg" x="642" y="82" width="12" height="12"/><rect class="c ch" x="642" y="98" width="12" height="12"/><rect class="c ci" x="658" y="2" width="12" height="12"/><rect class="c cj" x="658" y="18" width="12" height="12"/><rect class="c ck" x="658" y="34" width="12" height="12"/><rect class="c cl" x="658" y="50" width="12" height="12"/><rect class="c" x="658" y="66" width="12" height="12"/><rect class="c" x="658" y="82" width="12" height="12"/><rect class="c cm" x="658" y="98" width="12" height="12"/><rect class="c" x="674" y="2" width="12" height="12"/><rect class="c cn" x="674" y="18" width="12" height="12"/><rect class="c co" x="674" y="34" width="12" height="12"/><rect class="c cp" x="674" y="50" width="12" height="12"/><rect class="c cq" x="674" y="66" width="12" height="12"/><rect class="c cr" x="674" y="82" width="12" height="12"/><rect class="c" x="674" y="98" width="12" height="12"/><rect class="c cs" x="690" y="2" width="12" height="12"/><rect class="c ct" x="690" y="18" width="12" height="12"/><rect class="c cu" x="690" y="34" width="12" height="12"/><rect class="c" x="690" y="50" width="12" height="12"/><rect class="c" x="690" y="66" width="12" height="12"/><rect class="c" x="690" y="82" width="12" height="12"/><rect class="c cv" x="690" y="98" width="12" height="12"/><rect class="c cw" x="706" y="2" width="12" height="12"/><rect class="c cx" x="706" y="18" width="12" height="12"/><rect class="c cy" x="706" y="34" width="12" height="12"/><rect class="c cz" x="706" y="50" width="12" height="12"/><rect class="c c10" x="706" y="66" width="12" height="12"/><rect class="c c11" x="706" y="82" width="12" height="12"/><rect class="c c12" x="706" y="98" width="12" height="12"/><rect class="c c13" x="722" y="2" width="12" height="12"/><rect class="c c14" x="722" y="18" width="12" height="12"/><rect class="c c15" x="722" y="34" width="12" height="12"/><rect class="c c16" x="722" y="50" width="12" height="12"/><rect class="c c17" x="722" y="66" width="12" height="12"/><rect class="c c18" x="722" y="82" width="12" height="12"/><rect class="c c19" x="722" y="98" width="12" height="12"/><rect class="c c1a" x="738" y="2" width="12" height="12"/><rect class="c c1b" x="738" y="18" width="12" height="12"/><rect class="c c1c" x="738" y="34" width="12" height="12"/><rect class="c c1d" x="738" y="50" width="12" height="12"/><rect class="c" x="738" y="66" width="12" height="12"/><rect class="c c1e" x="738" y="82" width="12" height="12"/><rect class="c" x="738" y="98" width="12" height="12"/><rect class="c c1f" x="754" y="2" width="12" height="12"/><rect class="c c1g" x="754" y="18" width="12" height="12"/><rect class="c c1h" x="754" y="34" width="12" height="12"/><rect class="c" x="754" y="50" width="12" height="12"/><rect class="c c1i" x="754" y="66" width="12" height="12"/><rect class="c c1j" x="754" y="82" width="12" height="12"/><rect class="c c1k" x="754" y="98" width="12" height="12"/><rect class="c c1l" x="770" y="2" width="12" height="12"/><rect class="c c1m" x="770" y="18" width="12" height="12"/><rect class="c c1n" x="770" y="34" width="12" height="12"/><rect class="c c1o" x="770" y="50" width="12" height="12"/><rect class="c c1p" x="770" y="66" width="12" height="12"/><rect class="c c1q" x="770" y="82" width="12" height="12"/><rect class="c c1r" x="770" y="98" width="12" height="12"/><rect class="c c1s" x="786" y="2" width="12" height="12"/><rect class="c c1t" x="786" y="18" width="12" height="12"/><rect class="c c1u" x="786" y="34" width="12" height="12"/><rect class="c c1v" x="786" y="50" width="12" height="12"/><rect class="c c1w" x="786" y="66" width="12" height="12"/><rect class="c c1x" x="786" y="82" width="12" height="12"/><rect class="c c1y" x="786" y="98" width="12" height="12"/><rect class="c c1z" x="802" y="2" width="12" height="12"/><rect class="c" x="802" y="18" width="12" height="12"/><rect class="c c20" x="802" y="34" width="12" height="12"/><rect class="c c21" x="802" y="50" width="12" height="12"/><rect class="c c22" x="802" y="66" width="12" height="12"/><rect class="c c23" x="802" y="82" width="12" height="12"/><rect class="c" x="802" y="98" width="12" height="12"/><rect class="c" x="818" y="2" width="12" height="12"/><rect class="c c24" x="818" y="18" width="12" height="12"/><rect class="c" x="818" y="34" width="12" height="12"/><rect class="c c25" x="818" y="50" width="12" height="12"/><rect class="c" x="818" y="66" width="12" height="12"/><rect class="c" x="818" y="82" width="12" height="12"/><rect class="c" x="818" y="98" width="12" height="12"/><rect class="c c26" x="834" y="2" width="12" height="12"/><rect class="c c27" x="834" y="18" width="12" height="12"/><rect class="c" x="834" y="34" width="12" height="12"/><rect class="c" x="834" y="50" width="12" height="12"/><rect class="u u0" height="12" width="636.6" x="0.0" y="144"/><rect class="u u1" height="12" width="11.2" x="636.0" y="144"/><rect class="u u2" height="12" width="21.8" x="646.6" y="144"/><rect class="u u3" height="12" width="11.2" x="667.8" y="144"/><rect class="u u4" height="12" width="11.2" x="678.4" y="144"/><rect class="u u5" height="12" width="117.2" x="689.0" y="144"/><rect class="u u6" height="12" width="21.8" x="805.6" y="144"/><rect class="u u7" height="12" width="21.8" x="826.8" y="144"/><rect class="s s0" x="0.8" y="0.8" width="14.4" height="14.4" rx="4.5" ry="4.5"/><rect class="s s1" x="1.8" y="1.8" width="12.3" height="12.3" rx="4.1" ry="4.1"/><rect class="s s2" x="2.6" y="2.6" width="10.8" height="10.8" rx="3.6" ry="3.6"/><rect class="s s3" x="3.0" y="3.0" width="9.9" height="9.9" rx="3.3" ry="3.3"/></svg>